Coordinates
version=1
nRows=14
nColumns=24
inDegrees=yes

Units are S.I. units (second, meters, Newtons, ...)
Angles are in degrees.

endheader
time	pelvis_tilt	pelvis_list	pelvis_rotation	pelvis_tx	pelvis_ty	pelvis_tz	hip_flexion_r	hip_adduction_r	hip_rotation_r	knee_angle_r	ankle_angle_r	subtalar_angle_r	mtp_angle_r	hip_flexion_l	hip_adduction_l	hip_rotation_l	knee_angle_l	ankle_angle_l	subtalar_angle_l	mtp_angle_l	lumbar_extension	lumbar_bending	lumbar_rotation
      2.46000000	     57.65882554	    -17.21586065	     -1.96823492	      0.52906316	      0.95102861	     -0.22803290	     31.72994222	     -5.08749752	    -19.42077324	    -70.01488885	     -9.96846071	      0.00000000	      0.00000000	     27.50552566	    -15.00531694	     21.43236164	    -19.24000527	    -37.27373599	      0.00000000	      0.00000000	      0.00000000	      0.00000000	      0.00000000
      2.47000000	     57.64903934	    -17.21217793	     -1.96727575	      0.52908067	      0.95103833	     -0.22807974	     31.69682404	     -5.07654868	    -19.40071220	    -70.01533500	     -9.96212382	      0.00000000	      0.00000000	     27.52383934	    -14.99949552	     21.39182777	    -19.23076619	    -37.30748635	      0.00000000	      0.00000000	      0.00000000	      0.00000000	      0.00000000
      2.48000000	     57.64553850	    -17.20992425	     -1.96586262	      0.52908409	      0.95104451	     -0.22809877	     31.66031072	     -5.06734762	    -19.38523019	    -70.01185775	     -9.95061281	      0.00000000	      0.00000000	     27.53624044	    -14.99462139	     21.34277464	    -19.22327394	    -37.34080995	      0.00000000	      0.00000000	      0.00000000	      0.00000000	      0.00000000
      2.49000000	     57.64793470	    -17.20893239	     -1.96350114	      0.52907815	      0.95105870	     -0.22810996	     31.62109907	     -5.06120212	    -19.37415226	    -70.00505035	     -9.93441141	      0.00000000	      0.00000000	     27.54289949	    -14.98962771	     21.29028972	    -19.21806922	    -37.37032730	      0.00000000	      0.00000000	      0.00000000	      0.00000000	      0.00000000
      2.50000000	     57.65413535	    -17.20786879	     -1.96023444	      0.52907654	      0.95108174	     -0.22813544	     31.57895225	     -5.05754541	    -19.36600431	    -69.99637249	     -9.91463635	      0.00000000	      0.00000000	     27.54415208	    -14.98382945	     21.24087732	    -19.21477324	    -37.39255539	      0.00000000	      0.00000000	      0.00000000	      0.00000000	      0.00000000
      2.51000000	     57.66204634	    -17.20537625	     -1.95645978	      0.52908551	      0.95110215	     -0.22817499	     31.53376510	     -5.05563811	    -19.35869283	    -69.98702349	     -9.89306218	      0.00000000	      0.00000000	     27.54047168	    -14.97705763	     21.20066662	    -19.21197493	    -37.40490459	      0.00000000	      0.00000000	      0.00000000	      0.00000000	      0.00000000
      2.52000000	     57.67075078	    -17.20085394	     -1.95237323	      0.52909822	      0.95111412	     -0.22821397	     31.48652380	     -5.05560357	    -19.35025291	    -69.97737511	     -9.87198916	      0.00000000	      0.00000000	     27.53227462	    -14.96978326	     21.17377311	    -19.20793714	    -37.40656840	      0.00000000	      0.00000000	      0.00000000	      0.00000000	      0.00000000
      2.53000000	     57.68003746	    -17.19440064	     -1.94785227	      0.52910825	      0.95112141	     -0.22823717	     31.43869612	     -5.05819144	    -19.33965196	    -69.96738985	     -9.85391735	      0.00000000	      0.00000000	     27.51970620	    -14.96309838	     21.16140255	    -19.20169582	    -37.39886799	      0.00000000	      0.00000000	      0.00000000	      0.00000000	      0.00000000
      2.54000000	     57.68973969	    -17.18638905	     -1.94288499	      0.52911799	      0.95112547	     -0.22824452	     31.39107584	     -5.06358654	    -19.32733435	    -69.95722506	     -9.84112519	      0.00000000	      0.00000000	     27.50282328	    -14.95812945	     21.16169082	    -19.19358592	    -37.38492574	      0.00000000	      0.00000000	      0.00000000	      0.00000000	      0.00000000
      2.55000000	     57.70001280	    -17.17726728	     -1.93796348	      0.52913282	      0.95112509	     -0.22825321	     31.34349633	     -5.07040761	    -19.31511666	    -69.94722763	     -9.83524071	      0.00000000	      0.00000000	     27.48213760	    -14.95515901	     21.17017064	    -19.18482197	    -37.36881691	      0.00000000	      0.00000000	      0.00000000	      0.00000000	      0.00000000
      2.56000000	     57.71151250	    -17.16786136	     -1.93392304	      0.52915494	      0.95112297	     -0.22827252	     31.29510189	     -5.07624302	    -19.30511969	    -69.93733735	     -9.83692329	      0.00000000	      0.00000000	     27.45894510	    -14.95350256	     21.18091840	    -19.17661050	    -37.35447973	      0.00000000	      0.00000000	      0.00000000	      0.00000000	      0.00000000
      2.57000000	     57.72475571	    -17.15951125	     -1.93122703	      0.52918141	      0.95112371	     -0.22829236	     31.24471758	     -5.07936854	    -19.29823114	    -69.92653898	     -9.84572505	      0.00000000	      0.00000000	     27.43494329	    -14.95269396	     21.18826271	    -19.16949824	    -37.34469840	      0.00000000	      0.00000000	      0.00000000	      0.00000000	      0.00000000
      2.58000000	     57.73971316	    -17.15354330	     -1.92953134	      0.52920745	      0.95112696	     -0.22830162	     31.19144284	     -5.07977800	    -19.29350387	    -69.91300051	     -9.86013660	      0.00000000	      0.00000000	     27.41141350	    -14.95368136	     21.18836855	    -19.16322087	    -37.34045293	      0.00000000	      0.00000000	      0.00000000	      0.00000000	      0.00000000
      2.59000000	     57.75629248	    -17.15059656	     -1.92818028	      0.52923050	      0.95112907	     -0.22829916	     31.13513838	     -5.07845861	    -19.28919185	    -69.89499494	     -9.87783643	      0.00000000	      0.00000000	     27.38874403	    -14.95834132	     21.17986638	    -19.15688775	    -37.34083594	      0.00000000	      0.00000000	      0.00000000	      0.00000000	      0.00000000
